<svg xmlns="http://www.w3.org/2000/svg" width="32" height="32" viewBox="0 0 32 32"><g transform="translate(0 -1020.362)"><path fill="#fcd062" d="M13.49906 1037.8373c-.24644 2.2635-2.17316 3.9833-4.47665 3.996-2.3035.013-4.24947-1.6859-4.5214-3.9465l-.001-1.2253 0-1.7846 9 0 0 1.7846zM26.49906 1037.8373c-.24644 2.2635-2.17316 3.9833-4.47665 3.996-2.3035.013-4.24947-1.6859-4.5214-3.9465l-.001-1.2253 0-.7846 9 0 0 .7846z"/><path fill="#f05542" d="M16.71145 1022.0352c-.75674-.427-1.71926-.1674-2.15781.5824-.75675-.427-1.71899-.1673-2.15756.5825-.43857.7497-.18241 1.697.57434 2.124l1.36594.7707 1.36621.7708.79161-1.3532.79161-1.3533c.43857-.7497.18241-1.6969-.57434-2.1239zM6.60276 1028.5743c.007-.7174.59003-1.2983 1.30741-1.3022.007-.7174.59002-1.2981 1.30739-1.302.71738 0 1.2893.5704 1.28235 1.2878l-.0125 1.295-.0125 1.2951-1.29487.01-1.29489.01c-.71738 0-1.28929-.5705-1.28235-1.2879zM22.50414 1027.8695c-.005-.5529-.45482-1.0007-1.0078-1.0037-.005-.5529-.45481-1.0006-1.00779-1.0035-.55298 0-.99383.4397-.98848.9926l.01.9981.01.9983.99813.01.99815.01c.55297 0 .99383-.4397.98848-.9926z"/><path d="m 4.5,1031.3613 a 0.50005,0.50005 0 0 0 -0.5,0.5 l 0,4.8008 0.00195,1.2246 a 0.50005,0.50005 0 0 0 0.00195,0.061 c 0.302163,2.5119 2.4705638,4.4011 5.0214844,4.3867 2.5508104,-0.014 4.6968614,-1.9282 4.9707034,-4.4434 A 0.50005,0.50005 0 0 0 14,1037.8379 l 0,-1.1758 0,-4.8008 a 0.50005,0.50005 0 0 0 -0.5,-0.5 l -9,0 z m 0.5,1 8,0 0,4.3008 0,1.127 c -0.221938,2.0086 -1.926465,3.5336 -3.9804688,3.5449 -2.05175,0.012 -3.7701642,-1.4932 -4.0175781,-3.4961 L 5,1036.6621 l 0,-4.3008 z" color="#000" font-family="sans-serif" font-weight="400" overflow="visible" white-space="normal" style="line-height:normal;text-indent:0;text-align:start;text-decoration-line:none;text-decoration-style:solid;text-decoration-color:#000;text-transform:none;block-progression:tb;isolation:auto;mix-blend-mode:normal"/><path style="line-height:normal;text-indent:0;text-align:start;text-decoration-line:none;text-decoration-style:solid;text-decoration-color:#000;text-transform:none;block-progression:tb;isolation:auto;mix-blend-mode:normal" fill-rule="evenodd" d="M 8.9921875,1041.3613 A 0.50005,0.50005 0 0 0 8.5,1041.8672 l 0,8.9883 a 0.50005,0.50005 0 1 0 1,0 l 0,-8.9883 a 0.50005,0.50005 0 0 0 -0.5078125,-0.5059 z" color="#000" font-family="sans-serif" font-weight="400" overflow="visible" white-space="normal"/><path style="line-height:normal;text-indent:0;text-align:start;text-decoration-line:none;text-decoration-style:solid;text-decoration-color:#000;text-transform:none;block-progression:tb;isolation:auto;mix-blend-mode:normal" fill-rule="evenodd" d="M5.5058594 1050.3613a.50005.50005 0 1 0 0 1l6.9882816 0a.50005.50005 0 1 0 0-1l-6.9882816 0zM4.5078125 1034.3613a.50005.50005 0 1 0 0 1l8.9999995 0a.50005.50005 0 1 0 0-1l-8.9999995 0z" color="#000" font-family="sans-serif" font-weight="400" overflow="visible" white-space="normal"/><path d="m 17.5,1031.3613 a 0.50005,0.50005 0 0 0 -0.5,0.5 l 0,4.8008 0.002,1.2246 a 0.50005,0.50005 0 0 0 0.002,0.061 c 0.302163,2.5119 2.470564,4.4011 5.021485,4.3867 2.55081,-0.014 4.696861,-1.9282 4.970703,-4.4434 A 0.50005,0.50005 0 0 0 27,1037.8379 l 0,-1.1758 0,-4.8008 a 0.50005,0.50005 0 0 0 -0.5,-0.5 l -9,0 z m 0.5,1 8,0 0,4.3008 0,1.127 c -0.221938,2.0086 -1.926465,3.5336 -3.980469,3.5449 -2.05175,0.012 -3.770164,-1.4932 -4.017578,-3.4961 l -0.002,-1.1758 0,-4.3008 z" color="#000" font-family="sans-serif" font-weight="400" overflow="visible" white-space="normal" style="line-height:normal;text-indent:0;text-align:start;text-decoration-line:none;text-decoration-style:solid;text-decoration-color:#000;text-transform:none;block-progression:tb;isolation:auto;mix-blend-mode:normal"/><path style="line-height:normal;text-indent:0;text-align:start;text-decoration-line:none;text-decoration-style:solid;text-decoration-color:#000;text-transform:none;block-progression:tb;isolation:auto;mix-blend-mode:normal" fill-rule="evenodd" d="M 21.992188,1041.3613 A 0.50005,0.50005 0 0 0 21.5,1041.8672 l 0,8.9883 a 0.50005,0.50005 0 1 0 1,0 l 0,-8.9883 a 0.50005,0.50005 0 0 0 -0.507812,-0.5059 z" color="#000" font-family="sans-serif" font-weight="400" overflow="visible" white-space="normal"/><path style="line-height:normal;text-indent:0;text-align:start;text-decoration-line:none;text-decoration-style:solid;text-decoration-color:#000;text-transform:none;block-progression:tb;isolation:auto;mix-blend-mode:normal" fill-rule="evenodd" d="M18.505859 1050.3613a.50005.50005 0 1 0 0 1l6.988282 0a.50005.50005 0 1 0 0-1l-6.988282 0zM17.507812 1035.3613a.50005.50005 0 1 0 0 1l9 0a.50005.50005 0 1 0 0-1l-9 0z" color="#000" font-family="sans-serif" font-weight="400" overflow="visible" white-space="normal"/><path d="M15.382812 1021.4043c-.390101.1053-.682622.4171-.958984.7305-.918819-.3061-1.953364-.052-2.458984.8125-.57411.9814-.230572 2.2537.759765 2.8125l1.365235.7695 1.367187.7715a.50004997.50004997 0 0 0 .677735-.1836l.791015-1.3516.791016-1.3535c.5741-.9814.230543-2.2537-.759766-2.8125-.495157-.2794-1.060994-.3338-1.574219-.1953zm.259766.9609c.266858-.072.560683-.042.822266.1055.523191.2952.691712.9175.388672 1.4355l-.791016 1.3536-.542969.9277-.9375-.5273-1.365234-.7715c-.523163-.2952-.691702-.9176-.388672-1.4356.30305-.5181.957274-.6956 1.480469-.4004a.50004997.50004997 0 0 0 .675781-.1836c.151487-.259.391346-.4319.658203-.5039zM9.2148438 1025.4707c-.8495598 0-1.4678053.6507-1.65625 1.4473-.7979215.1847-1.4467854.8024-1.4550782 1.6523a.50005.50005 0 0 0 .00391.068l.00781.061-.00391-.068c-.0095.9817.8163891 1.7363 1.7734375 1.7363a.50005.50005 0 0 0 .00391 0l1.2949219-.01 1.2949222-.01a.50005.50005 0 0 0 .496093-.4942l.01367-1.2949L11 1027.2637c.0095-.9857-.800785-1.793-1.7832031-1.793a.50005.50005 0 0 0-.00195 0zm.00391 1.002c.4506252 0 .78559.3332.78125.7812l-.011719 1.2949-.00781.8028-.8046876.01-1.2910156.01c-.4777116 0-.7778199-.2755-.7734375-.7285a.50005.50005 0 0 0-.00391-.062c.00774-.4461.357909-.8023.8046875-.8047a.50005.50005 0 0 0 .4980468-.4942c.00437-.448.3610983-.8005.8085938-.8046zM20.488281 1025.3613c-.818029 0-1.496227.6769-1.488281 1.4981l.0098.998.0098.9981a.50005.50005 0 0 0 .496094.4961l.998047.01.998047.01a.50005.50005 0 0 0 .0039 0c.799216 0 1.496226-.6458 1.488281-1.4668a.50005.50005 0 0 0 0 0l0-.035c-.0062-.6863-.521831-1.1776-1.15625-1.3535-.178992-.6327-.671957-1.1448-1.357422-1.1484a.50005.50005 0 0 0-.002 0zm-.002 1c.0011 0 .000865 0 .002 0 .282982 0 .505253.2247.507813.5078a.50005.50005 0 0 0 .498047.4941c.284531 0 .507195.2237.509765.5078a.50005.50005 0 0 0 0 .01l.002.039-.002 0c.0028.2847-.181557.457-.488281.457l-.992187-.01-.507813-.01-.0059-.5078L20 1026.8496c-.0027-.284.201264-.4855.488281-.4863 0 0-.002 0-.002 0z" color="#000" font-family="sans-serif" font-weight="400" overflow="visible" white-space="normal" style="line-height:normal;text-indent:0;text-align:start;text-decoration-line:none;text-decoration-style:solid;text-decoration-color:#000;text-transform:none;block-progression:tb;isolation:auto;mix-blend-mode:normal"/><path fill="#f8b84e" d="M7.0170498 1036.8768a.5.5 0 0 1-.5.5.5.5 0 0 1-.5-.5.5.5 0 0 1 .5-.5.5.5 0 0 1 .5.5zM9.0170498 1039.8768a.5.5 0 0 1-.5.5.5.5 0 0 1-.5-.5.5.5 0 0 1 .5-.5.5.5 0 0 1 .5.5zM10.01705 1037.8768a.5.5 0 0 1-.5000002.5.5.5 0 0 1-.5-.5.5.5 0 0 1 .5-.5.5.5 0 0 1 .5000002.5zM12.01705 1038.8768a.5.5 0 0 1-.5.5.5.5 0 0 1-.5-.5.5.5 0 0 1 .5-.5.5.5 0 0 1 .5.5zM20.01705 1038.8768a.5.5 0 0 1-.5.5.5.5 0 0 1-.5-.5.5.5 0 0 1 .5-.5.5.5 0 0 1 .5.5zM22.01705 1039.8768a.5.5 0 0 1-.5.5.5.5 0 0 1-.5-.5.5.5 0 0 1 .5-.5.5.5 0 0 1 .5.5zM23.01705 1037.8768a.5.5 0 0 1-.5.5.5.5 0 0 1-.5-.5.5.5 0 0 1 .5-.5.5.5 0 0 1 .5.5zM25.01705 1038.8768a.5.5 0 0 1-.5.5.5.5 0 0 1-.5-.5.5.5 0 0 1 .5-.5.5.5 0 0 1 .5.5z"/></g></svg>