<?xml version="1.0" encoding="UTF-8" standalone="no"?>
<svg xmlns:dc="http://purl.org/dc/elements/1.1/" xmlns:cc="http://creativecommons.org/ns#" xmlns:rdf="http://www.w3.org/1999/02/22-rdf-syntax-ns#" xmlns:svg="http://www.w3.org/2000/svg" xmlns="http://www.w3.org/2000/svg" xmlns:sodipodi="http://sodipodi.sourceforge.net/DTD/sodipodi-0.dtd" xmlns:inkscape="http://www.inkscape.org/namespaces/inkscape" width="56" height="56" viewBox="0 0 56 56" id="svg7727" version="1.1" inkscape:version="0.91 r13725" sodipodi:docname="love-letter-romance-valentines-day-greetings-wishes.svg">
  <defs id="defs7729">
    <pattern y="0" x="0" height="6" width="6" patternUnits="userSpaceOnUse" id="EMFhbasepattern"/>
    <pattern y="0" x="0" height="6" width="6" patternUnits="userSpaceOnUse" id="EMFhbasepattern-6"/>
    <pattern y="0" x="0" height="6" width="6" patternUnits="userSpaceOnUse" id="EMFhbasepattern-9"/>
    <pattern y="0" x="0" height="6" width="6" patternUnits="userSpaceOnUse" id="EMFhbasepattern-0"/>
    <pattern y="0" x="0" height="6" width="6" patternUnits="userSpaceOnUse" id="EMFhbasepattern-1"/>
    <pattern y="0" x="0" height="6" width="6" patternUnits="userSpaceOnUse" id="EMFhbasepattern-2"/>
    <pattern y="0" x="0" height="6" width="6" patternUnits="userSpaceOnUse" id="EMFhbasepattern-5"/>
    <pattern y="0" x="0" height="6" width="6" patternUnits="userSpaceOnUse" id="EMFhbasepattern-19"/>
    <pattern y="0" x="0" height="6" width="6" patternUnits="userSpaceOnUse" id="EMFhbasepattern-17"/>
    <pattern y="0" x="0" height="6" width="6" patternUnits="userSpaceOnUse" id="EMFhbasepattern-8"/>
    <pattern y="0" x="0" height="6" width="6" patternUnits="userSpaceOnUse" id="EMFhbasepattern-22"/>
    <inkscape:path-effect effect="fillet-chamfer" id="path-effect6467-5-5-4" is_visible="true" fillet_chamfer_values="0,0 | 0,1 | 0,1" method="auto" radius="0" chamfer_steps="1" helper_size="0" flexible="false" use_knot_distance="false" ignore_radius_0="false" only_selected="true" hide_knots="false"/>
    <pattern y="0" x="0" height="6" width="6" patternUnits="userSpaceOnUse" id="EMFhbasepattern-60"/>
    <pattern y="0" x="0" height="6" width="6" patternUnits="userSpaceOnUse" id="EMFhbasepattern-54"/>
    <inkscape:path-effect effect="fillet-chamfer" id="path-effect11235-8-1-8" is_visible="true" fillet_chamfer_values="0,0 | -0.22506544,1" method="auto" radius="0.25" chamfer_steps="1" helper_size="0" flexible="false" use_knot_distance="false" ignore_radius_0="false" only_selected="false" hide_knots="false"/>
    <inkscape:path-effect effect="fillet-chamfer" id="path-effect11231-3-0-9" is_visible="true" fillet_chamfer_values="0,1 | 0,1 | 0,1 | 0,1" method="auto" radius="0.25" chamfer_steps="1" helper_size="0" flexible="false" use_knot_distance="false" ignore_radius_0="false" only_selected="false" hide_knots="false"/>
    <inkscape:path-effect effect="fillet-chamfer" id="path-effect11235-7-8-1-9" is_visible="true" fillet_chamfer_values="0,0 | -0.22506544,1" method="auto" radius="0.25" chamfer_steps="1" helper_size="0" flexible="false" use_knot_distance="false" ignore_radius_0="false" only_selected="false" hide_knots="false"/>
    <inkscape:path-effect effect="fillet-chamfer" id="path-effect11231-0-1-4-0" is_visible="true" fillet_chamfer_values="0,1 | 0,1 | 0,1 | 0,1" method="auto" radius="0.25" chamfer_steps="1" helper_size="0" flexible="false" use_knot_distance="false" ignore_radius_0="false" only_selected="false" hide_knots="false"/>
    <pattern y="0" x="0" height="6" width="6" patternUnits="userSpaceOnUse" id="EMFhbasepattern-4"/>
    <pattern y="0" x="0" height="6" width="6" patternUnits="userSpaceOnUse" id="EMFhbasepattern-48"/>
    <pattern y="0" x="0" height="6" width="6" patternUnits="userSpaceOnUse" id="EMFhbasepattern-04"/>
    <pattern y="0" x="0" height="6" width="6" patternUnits="userSpaceOnUse" id="EMFhbasepattern-14"/>
    <inkscape:path-effect effect="fillet-chamfer" id="path-effect6961-4-1-9" is_visible="true" fillet_chamfer_values="0,0 | -0.33332944,1 | 0,1 | -0.3,1 | -0.3,1" method="auto" radius="0.3" chamfer_steps="1" helper_size="0" flexible="false" use_knot_distance="false" ignore_radius_0="false" only_selected="true" hide_knots="false"/>
    <inkscape:path-effect effect="fillet-chamfer" id="path-effect15007" is_visible="true" fillet_chamfer_values="0,0 | -0.33332944,1 | 0,1 | -0.3,1 | -0.3,1" method="auto" radius="0.3" chamfer_steps="1" helper_size="0" flexible="false" use_knot_distance="false" ignore_radius_0="false" only_selected="true" hide_knots="false"/>
    <pattern y="0" x="0" height="6" width="6" patternUnits="userSpaceOnUse" id="EMFhbasepattern-18"/>
    <pattern y="0" x="0" height="6" width="6" patternUnits="userSpaceOnUse" id="EMFhbasepattern-50"/>
    <pattern y="0" x="0" height="6" width="6" patternUnits="userSpaceOnUse" id="EMFhbasepattern-91"/>
    <inkscape:path-effect effect="fillet-chamfer" id="path-effect6961-7-7-7-4" is_visible="true" fillet_chamfer_values="0,0 | -0.33332944,1 | 0,1 | -0.3,1 | -0.3,1" method="auto" radius="0.3" chamfer_steps="1" helper_size="0" flexible="false" use_knot_distance="false" ignore_radius_0="false" only_selected="true" hide_knots="false"/>
    <pattern y="0" x="0" height="6" width="6" patternUnits="userSpaceOnUse" id="EMFhbasepattern-05"/>
    <pattern y="0" x="0" height="6" width="6" patternUnits="userSpaceOnUse" id="EMFhbasepattern-57"/>
    <pattern y="0" x="0" height="6" width="6" patternUnits="userSpaceOnUse" id="EMFhbasepattern-59"/>
    <pattern y="0" x="0" height="6" width="6" patternUnits="userSpaceOnUse" id="EMFhbasepattern-11"/>
  </defs>
  <sodipodi:namedview id="base" pagecolor="#ffffff" bordercolor="#666666" borderopacity="1.0" inkscape:pageopacity="0.0" inkscape:pageshadow="2" inkscape:zoom="3.9279709" inkscape:cx="22.560779" inkscape:cy="34.280697" inkscape:document-units="px" inkscape:current-layer="layer1" showgrid="true" units="px" inkscape:window-width="1366" inkscape:window-height="716" inkscape:window-x="-8" inkscape:window-y="-8" inkscape:window-maximized="1" inkscape:snap-global="false">
    <inkscape:grid type="xygrid" id="grid4443" empspacing="2" spacingx="0.5" spacingy="0.5"/>
  </sodipodi:namedview>
  
  <g inkscape:label="Layer 1" inkscape:groupmode="layer" id="layer1" transform="translate(0,-996.3622)">
    <g style="display:inline" id="g19445" transform="matrix(3.7795276,0,0,3.7795276,1980.5115,86.957116)">
      <circle style="opacity:1;fill:#e81e63;fill-opacity:1;stroke:none;stroke-width:0.07000434;stroke-linecap:round;stroke-linejoin:round;stroke-miterlimit:4;stroke-dasharray:none;stroke-dashoffset:0;stroke-opacity:1" id="circle19441" cx="-516.60199" cy="248.02176" r="7.4083328"/>
      <path sodipodi:nodetypes="ccccssssccccsssccsccccccccccccccssssccccssscccccccccc" inkscape:connector-curvature="0" id="path19443" d="m -516.61542,244.38357 c -0.11783,0.003 -0.23076,0.0472 -0.31885,0.12454 l -2.90421,2.54817 c -0.21345,0.1874 -0.3355,0.45597 -0.33538,0.73794 l 0,2.87889 c 0,0.54513 0.44765,0.98702 0.99994,0.98702 l 5.14387,0 c 0.55228,0 0.99994,-0.44189 0.99994,-0.98702 l 0,-2.87889 c -10e-6,-0.28205 -0.12226,-0.55063 -0.3359,-0.73794 l -2.9037,-2.54817 c -0.095,-0.0834 -0.21862,-0.12792 -0.34571,-0.12454 z m -1.32818,1.85746 2.70268,0 c 0.34764,0 0.63304,0.28541 0.63304,0.63304 l 0,1.44436 0.99012,-0.60255 c 0.15225,-0.097 0.29111,0.13246 0.13694,0.22634 l -2.15284,1.30948 1.90479,1.64951 c 0.13402,0.11611 -0.0401,0.31713 -0.17415,0.20103 l -1.96784,-1.70636 -0.26251,0.15968 c -0.28156,0.17139 -0.63622,0.17139 -0.91777,0 l -0.26252,-0.15968 -1.96784,1.70636 c -0.13401,0.1161 -0.30816,-0.0849 -0.17415,-0.20103 l 1.90479,-1.64951 -2.15284,-1.30948 c -0.1188,-0.0658 -0.0733,-0.24645 0.0625,-0.24804 0.0264,-2.6e-4 0.0523,0.007 0.0744,0.0217 l 0.99013,0.60254 0,-1.44436 c 0,-0.34762 0.2854,-0.63302 0.63303,-0.63302 z m 0,0.26356 c -0.20464,0 -0.36948,0.16484 -0.36948,0.36948 l 0,1.60455 1.40043,0.85215 c 0.19751,0.12023 0.44327,0.12023 0.64079,0 l 1.40043,-0.85215 0,-1.60455 c 0,-0.20464 -0.16484,-0.36948 -0.36949,-0.36948 z m 1.74822,0.66145 5.3e-4,0 c 0.2192,-1.8e-4 0.39658,0.16867 0.39636,0.37672 -1.6e-4,0.10779 -0.0575,0.20218 -0.13435,0.28164 -0.22298,0.2319 -0.65888,0.66559 -0.65888,0.66559 0,0 -0.46902,-0.44682 -0.6935,-0.69556 -0.0634,-0.0701 -0.10067,-0.15825 -0.10077,-0.25063 1.8e-4,-0.20802 0.17824,-0.37651 0.39739,-0.37672 0.21919,-1.9e-4 0.39656,0.16816 0.39636,0.3762 1.8e-4,-0.20802 0.17773,-0.37702 0.39688,-0.37724 z" style="fill:#ffffff;fill-rule:evenodd;stroke:none;stroke-width:0.26458332px;stroke-linecap:round;stroke-linejoin:round;stroke-opacity:1"/>
    </g>
  </g>

	<metadata>
		<rdf:RDF xmlns:rdf="http://www.w3.org/1999/02/22-rdf-syntax-ns#" xmlns:rdfs="http://www.w3.org/2000/01/rdf-schema#" xmlns:dc="http://purl.org/dc/elements/1.1/">
			<rdf:Description about="https://iconscout.com/legal#licenses" dc:title="love-letter-romance-valentines-day-greetings-wishes" dc:description="love-letter-romance-valentines-day-greetings-wishes" dc:publisher="Iconscout" dc:date="2017-06-30" dc:format="image/svg+xml" dc:language="en">
				<dc:creator>
					<rdf:Bag>
						<rdf:li>Vignesh Oviyan</rdf:li>
					</rdf:Bag>
				</dc:creator>
			</rdf:Description>
		</rdf:RDF>
    </metadata></svg>
