<svg xmlns="http://www.w3.org/2000/svg" enable-background="new 0 0 68 68" viewBox="0 0 68 68"><path fill="#FF7E7E" d="M53.7958,6.9876v9.4578H14.2045V6.9876c0-1.1403,0.9244-2.0647,2.0647-2.0647h9.2082
		c0.4314,0,0.8639-0.2188,1.034-0.6153c1.32-3.0766,12.5408-3.0766,13.8609,0c0.1701,0.3965,0.6026,0.6153,1.034,0.6153h10.3248
		C52.8714,4.9229,53.7958,5.8473,53.7958,6.9876z"/><path d="M22.6154 8.7199v1.6323h2.6356v.9268h-2.6356v2.4488h-1.0033V7.7844h3.962l-.0083.9355H22.6154zM29.4939 13.7873c-1.7587 0-3.1289-1.2944-3.1289-3.0736 0-1.7843 1.3741-3.0736 3.1289-3.0736 1.7565 0 3.1289 1.2909 3.1289 3.0736C32.6228 12.4935 31.2521 13.7873 29.4939 13.7873zM29.4939 8.5583c-1.2074 0-2.1.9732-2.1 2.1554 0 1.1854.8965 2.1554 2.1 2.1554 1.2045 0 2.1-.9709 2.1-2.1554C31.5939 9.5301 30.6998 8.5583 29.4939 8.5583zM36.6361 13.7873c-1.7587 0-3.1289-1.2944-3.1289-3.0736 0-1.7843 1.3741-3.0736 3.1289-3.0736 1.7565 0 3.1289 1.2909 3.1289 3.0736C39.765 12.4935 38.3942 13.7873 36.6361 13.7873zM36.6361 8.5583c-1.2074 0-2.1.9732-2.1 2.1554 0 1.1854.8965 2.1554 2.1 2.1554 1.2045 0 2.1-.9709 2.1-2.1554C38.7361 9.5301 37.842 8.5583 36.6361 8.5583zM46.3882 10.7265c0 1.8433-1.0892 3.0013-3.3836 3.0013h-1.9727V7.7844h2.0405C45.0997 7.7844 46.3882 8.7866 46.3882 10.7265zM45.3766 10.7518c0-1.3603-.7791-2.0405-2.3381-2.0405h-1.0033v4.0727h1.114C44.5395 12.784 45.3766 12.1363 45.3766 10.7518z"/><rect width="55.074" height="37.361" x="6.463" y="23.142" fill="#FBC41A"/><path fill="#F59F02" d="M61.5408,23.1456v37.3603H6.4656v-4.532c44.4732-5.874,47.9935-25.4678,47.694-32.8283H61.5408z"/><rect width="61.415" height="6.7" x="3.293" y="16.442" fill="#DEE1E6"/><path fill="#C7CBD1" d="M64.7101,16.4457v6.6999H54.4693c0.413-2.1059,0.2994-4.9346,0.1652-6.6999H64.7101z"/><rect width="61.414" height="5.583" x="3.293" y="60.417" fill="#DEE1E6"/><rect width="13.42" height="20.682" x="12.657" y="39.731" fill="#FFF"/><path fill="#DEE1E6" d="M26.08,39.7353V60.413H12.6596v-1.9717c9.5389-2.1886,9.8692-13.3172,9.4356-18.706H26.08z"/><g><rect width="24.776" height="17.166" x="31.419" y="28.799" fill="#4DABF4"/></g><g><path fill="#1D7BD5" d="M56.1933,28.8028v17.1575H31.4172v-3.9951c20.2648,1.5795,21.2971-9.0949,20.9668-13.1623H56.1933z"/></g><g><line x1="43.807" x2="43.807" y1="28.799" y2="45.965" fill="#4DABF4"/><path d="M64.707,24.1421c0.5527,0,1-0.4478,1-1v-6.6997c0-0.5522-0.4473-1-1-1h-9.9112V6.9878
				c0-1.6899-1.375-3.0649-3.0644-3.0649H41.4063c-0.0635,0-0.1211-0.0288-0.1152-0.0093C40.3701,1.7656,36.6328,1,33.4414,1
				c-3.1904,0-6.9277,0.7656-7.832,2.8872c-0.0107,0.0098-0.0615,0.0356-0.1318,0.0356h-9.208c-1.6904,0-3.0654,1.375-3.0654,3.0649
				v8.4546H3.293c-0.5527,0-1,0.4478-1,1v6.6997c0,0.5522,0.4473,1,1,1h2.1699V59.417H3.293c-0.5527,0-1,0.4478-1,1V66
				c0,0.5522,0.4473,1,1,1H64.707c0.5527,0,1-0.4478,1-1v-5.583c0-0.5522-0.4473-1-1-1h-2.1699V24.1421H64.707z M15.2041,6.9878
				c0-0.5874,0.4775-1.0649,1.0654-1.0649h9.208c0.8672,0,1.6328-0.4785,1.9531-1.2212C27.7891,3.8652,30.1357,3,33.4414,3
				c3.3066,0,5.6533,0.8652,6.0117,1.7017c0.3174,0.7417,1.085,1.2212,1.9531,1.2212h10.3252c0.5869,0,1.0644,0.4775,1.0644,1.0649
				v8.4546H15.2041V6.9878z M4.293,17.4424c57.6078,0.0014-2.757,0.0037,59.4141,0v4.6997c-12.2994,0-47.1474,0-59.4141,0V17.4424z
				 M63.707,65H4.293v-3.583c6.6422,0.01,62.9609,0.0213,59.4141,0V65z M60.5371,59.417h-33.46V40.7632
				c0-1.1206-0.9121-2.0322-2.0322-2.0322H13.6895c-1.1201,0-2.0322,0.9116-2.0322,2.0322V59.417H7.4629V24.1421h53.0742V59.417z
				 M13.6592,59.4131l0.0303-18.6821l11.3877,0.0322v18.6499H13.6592z"/><path d="M31.4189,46.9644h24.7764c0.5527,0,1-0.4478,1-1v-17.166c0-0.5522-0.4473-1-1-1H31.4189c-0.5527,0-1,0.4478-1,1v17.166
				C30.4189,46.5166,30.8662,46.9644,31.4189,46.9644z M55.1953,44.9644H44.8076v-15.166h10.3877V44.9644z M32.4189,29.7983h10.3887
				v15.166H32.4189V29.7983z"/></g></svg>